<?xml version="1.0" encoding="iso-8859-1"?>
<!-- Uploaded to: SVG Repo, www.svgrepo.com, Generator: SVG Repo Mixer Tools -->
<!DOCTYPE svg PUBLIC "-//W3C//DTD SVG 1.1//EN" "http://www.w3.org/Graphics/SVG/1.1/DTD/svg11.dtd">
<svg fill="#000000" version="1.1" id="Capa_1" xmlns="http://www.w3.org/2000/svg" xmlns:xlink="http://www.w3.org/1999/xlink" 
	 width="800px" height="800px" viewBox="0 0 740.207 740.207"
	 xml:space="preserve">
<g>
	<g>
		<path d="M602.36,282.769l-0.025-0.053c0.03,0.007,0.062,0.015,0.096,0.019C602.408,282.749,602.38,282.755,602.36,282.769z"/>
		<path d="M593.037,267.339c-0.003-0.001-0.005-0.001-0.006-0.001c0.001-0.016,0.006-0.032,0.006-0.047V267.339z"/>
	</g>
	<g>
		<path d="M418.257,372.291c-1.534-0.08-2.981-0.066-4.441-0.066c-4.637,0.303-9.798,1.42-14.556,4.725
			c-1.897,1.318-3.62,2.752-6.096,2.975c-1.043,0.094-7.936,0.201-8.035-8.035l-0.392-101.55
			c0.89-16.823-13.922-24.259-30.731-25.14c-16.829-0.861-29.299,5.131-30.174,21.951c0,0,0,1.457,0,2.755c0,1.417,0,1.955,0,1.962
			c0-0.007,0-0.545,0-1.962l-0.64-239.398C323.193,13.657,309.547,0,292.689,0c-16.836,0-30.503,13.657-30.503,30.507L260.9,267.573
			c-0.888-13.721-14.871-17.785-32.629-17.785c-18.055,0-32.691,4.175-32.691,22.22l0.007,12.422
			c-3.586-12.287-17.018-16.796-32.428-15.796c-14.959,0.969-24.938,8.832-24.938,26.907l-0.444,158.148
			c0,2.936-0.518,128.596,45.47,163.062v80.898c0,23.498,14.179,42.557,37.697,42.557c0,0,85.871-0.229,103.535-0.229
			c21.453-0.74,36.674-18.17,36.674-39.637v-79.041c21.885-5.49,83.409-146.414,83.409-146.414l3.902-80.225
			C449.353,377.836,435.074,373.16,418.257,372.291z"/>
	</g>
</g>
</svg>